<?xml version="1.0" standalone="no"?>
<!DOCTYPE svg PUBLIC "-//W3C//DTD SVG 20010904//EN"
 "http://www.w3.org/TR/2001/REC-SVG-20010904/DTD/svg10.dtd">
<svg version="1.0" xmlns="http://www.w3.org/2000/svg"
 width="128.000000pt" height="128.000000pt" viewBox="0 0 128.000000 128.000000"
 preserveAspectRatio="xMidYMid meet">
<metadata>
Created by potrace 1.11, written by Peter Selinger 2001-2013
</metadata>
<g transform="translate(0.000000,128.000000) scale(0.100000,-0.100000)"
fill="#000000" stroke="none">
<path d="M587 1243 c-3 -7 -2 -252 1 -279 1 -6 24 -11 53 -11 31 -1 55 -6 60
-14 4 -7 12 -10 16 -5 4 4 -7 21 -25 37 -30 27 -33 34 -30 82 3 46 5 52 23 49
31 -6 53 -31 48 -53 -5 -18 -3 -19 21 -8 41 19 34 53 -21 109 -46 45 -120 100
-135 100 -4 0 -9 -3 -11 -7z"/>
<path d="M840 1036 c0 -9 -11 -38 -25 -65 -14 -26 -23 -55 -20 -63 8 -21 89
-78 111 -78 17 0 104 50 104 61 0 8 -148 153 -160 157 -6 2 -10 -4 -10 -12z
m70 -106 c23 -18 24 -20 8 -36 -16 -16 -18 -16 -43 0 -21 14 -24 20 -15 36 13
25 19 25 50 0z"/>
<path d="M533 909 c-45 -8 -94 -32 -163 -78 -25 -17 -55 -31 -67 -31 -29 0
-29 -14 -1 -34 34 -24 60 -20 139 21 65 34 79 38 148 38 66 -1 87 -6 155 -37
66 -30 83 -34 107 -26 32 11 40 38 12 38 -10 0 -45 18 -78 40 -91 61 -173 83
-252 69z"/>
<path d="M695 743 c-59 -16 -161 -18 -198 -4 -38 15 -33 -3 8 -29 66 -41 160
-31 229 24 27 22 18 24 -39 9z"/>
<path d="M811 695 c-17 -20 -31 -42 -31 -49 0 -7 14 -30 30 -51 26 -32 36 -66
31 -97 -2 -17 17 -6 26 15 6 12 31 48 57 80 26 31 44 62 41 68 -13 19 -88 69
-105 69 -10 0 -32 -16 -49 -35z m83 -28 c18 -13 18 -15 1 -41 -17 -25 -19 -26
-36 -10 -22 20 -23 30 -6 49 15 18 19 18 41 2z"/>
<path d="M717 634 c-3 -3 -30 -9 -59 -13 l-53 -6 0 -293 c0 -239 2 -291 13
-287 8 3 15 5 17 5 2 0 30 45 62 101 32 55 68 117 80 138 40 66 35 143 -12
190 -11 11 -13 4 -8 -46 4 -45 1 -68 -12 -94 -17 -34 -63 -89 -75 -89 -3 0 -5
73 -5 163 l0 163 29 15 c16 8 33 25 37 37 8 21 0 30 -14 16z"/>
</g>
</svg>
